<?xml version="1.0" encoding="utf-8" ?>
<svg baseProfile="tiny" height="300px" version="1.2" width="200px" xmlns="http://www.w3.org/2000/svg" xmlns:ev="http://www.w3.org/2001/xml-events" xmlns:xlink="http://www.w3.org/1999/xlink"><defs /><path d="M 100 30 C 120 50, 130 100, 100 250 C 80 230, 70 180, 100 30 Z M 100 35 C 110 40, 115 45, 100 55 M 100 50 C 110 55, 115 60, 100 70 M 100 65 C 110 70, 115 75, 100 85 M 100 80 C 110 85, 115 90, 100 100 M 100 95 C 110 100, 115 105, 100 115 M 100 110 C 110 115, 115 120, 100 130 M 100 125 C 110 130, 115 135, 100 145 M 100 140 C 110 145, 115 150, 100 160 M 100 155 C 110 160, 115 165, 100 175 M 100 170 C 110 175, 115 180, 100 190 M 100 185 C 110 190, 115 195, 100 205 M 100 200 C 110 205, 115 210, 100 220 M 100 215 C 110 220, 115 225, 100 235 M 100 230 C 110 235, 115 240, 100 250 M 100 245 C 110 250, 115 255, 100 265" fill="#f4c542" stroke="#a56729" stroke-width="2" /></svg>