<?xml version="1.0" encoding="UTF-8"?>
<svg xmlns="http://www.w3.org/2000/svg" xmlns:xlink="http://www.w3.org/1999/xlink" width="4001" height="4001" viewBox="0 0 4001 4001">

<path fill-rule="evenodd" fill="rgb(83.984375%, 86.326599%, 12.547302%)" fill-opacity="1" d="M 1719.480469 3209.53125 C 1242.738281 3117.359375 723.144531 2682.949219 1116.320312 2179.109375 C 1191.230469 2083.101562 1262.828125 2055.039062 1315.308594 1904.820312 C 1386.570312 1700.789062 1379.648438 1481.589844 1620.988281 1263.050781 C 1660.648438 1227.140625 1704.199219 1195.070312 1760.929688 1166.21875 C 1886.820312 1102.21875 2113.671875 1102.210938 2239.550781 1166.21875 C 2296.289062 1195.070312 2339.839844 1227.140625 2379.5 1263.050781 C 2620.828125 1481.589844 2613.910156 1700.78125 2685.191406 1904.820312 C 2737.660156 2055.050781 2809.25 2083.101562 2884.171875 2179.109375 C 3277.351562 2682.960938 2757.761719 3117.359375 2281 3209.53125 C 2106.230469 3243.324219 1894.269531 3243.320312 1719.480469 3209.53125 "/>
<path fill-rule="evenodd" fill="rgb(89.0625%, 89.0625%, 39.598083%)" fill-opacity="1" d="M 1774.589844 1504.109375 C 1829.839844 1524.601562 1836.738281 1643.390625 1790 1769.441406 C 1743.261719 1895.480469 1660.578125 1981.050781 1605.328125 1960.558594 C 1550.070312 1940.078125 1543.171875 1821.28125 1589.910156 1695.238281 C 1636.648438 1569.191406 1719.339844 1483.621094 1774.589844 1504.109375 "/>
<path fill-rule="evenodd" fill="rgb(59.959412%, 59.568787%, 10.205078%)" fill-opacity="1" d="M 2161.058594 1137.390625 C 2111.699219 1124.609375 2055.980469 1118.210938 2000.238281 1118.210938 C 1944.511719 1118.21875 1888.78125 1124.601562 1839.421875 1137.390625 C 1860.148438 1154.601562 1924.308594 1167.148438 2000.238281 1167.148438 C 2076.179688 1167.148438 2140.339844 1154.601562 2161.070312 1137.390625 L 2161.058594 1137.390625 "/>
<path fill-rule="evenodd" fill="rgb(51.756287%, 32.151794%, 21.580505%)" fill-opacity="1" d="M 1948.171875 1165.101562 C 1966.53125 1078.070312 2016.058594 913.679688 2142.730469 779.988281 C 2159.699219 762.128906 2187.96875 761.429688 2205.820312 778.410156 C 2223.679688 795.398438 2224.378906 823.648438 2207.398438 841.511719 C 2102.441406 952.289062 2057.53125 1086.640625 2039.039062 1166.03125 C 2026.578125 1166.761719 2013.601562 1167.148438 2000.238281 1167.148438 C 1982.058594 1167.148438 1964.558594 1166.429688 1948.171875 1165.101562 "/>
<path fill-rule="evenodd" fill="rgb(17.259216%, 64.256287%, 23.143005%)" fill-opacity="1" d="M 2054.390625 974.601562 C 1764.808594 901 1400.679688 833.378906 1250.679688 1207.671875 C 1510.621094 1418.101562 1986.789062 1229.480469 2054.398438 974.601562 L 2054.390625 974.601562 "/>
<path fill-rule="evenodd" fill="rgb(77.34375%, 81.639099%, 7.835388%)" fill-opacity="1" d="M 1719.480469 3209.53125 C 1445.441406 3156.546875 1157.300781 2990.460938 1036.441406 2763.128906 C 1181.039062 2921.660156 1407.351562 3034.910156 1624.78125 3076.949219 C 1799.558594 3110.746094 2011.519531 3110.742188 2186.308594 3076.949219 C 2631.710938 2990.839844 3114.421875 2606 2855.351562 2144.898438 C 2864.871094 2155.449219 2874.5 2166.710938 2884.171875 2179.109375 C 3277.351562 2682.960938 2757.761719 3117.359375 2281 3209.53125 C 2106.230469 3243.324219 1894.269531 3243.320312 1719.480469 3209.53125 "/>
</svg>
