<?xml version="1.0" encoding="UTF-8"?>
<svg xmlns="http://www.w3.org/2000/svg" xmlns:xlink="http://www.w3.org/1999/xlink" width="4001" height="4001" viewBox="0 0 4001 4001">

<path fill-rule="evenodd" fill="rgb(93.359375%, 10.984802%, 14.501953%)" fill-opacity="1" d="M 1862.601562 1137.480469 L 2127.941406 1137.480469 C 2707.101562 1137.480469 3180.988281 1611.351562 3180.988281 2190.53125 L 3180.96875 2190.53125 C 3180.96875 2769.71875 2707.121094 3243.582031 2127.949219 3243.582031 L 1862.601562 3243.582031 C 1283.429688 3243.582031 809.566406 2769.71875 809.566406 2190.53125 L 809.542969 2190.53125 C 809.542969 1611.339844 1283.441406 1137.488281 1862.601562 1137.488281 L 1862.601562 1137.480469 "/>
<path fill-rule="evenodd" fill="rgb(34.521484%, 60.742188%, 6.665039%)" fill-opacity="1" d="M 1919.019531 1235.730469 C 1876.699219 1302.449219 1835.570312 1494.75 1939.429688 1583.71875 C 1968.859375 1423.609375 2003.28125 1324.859375 2040.351562 1269.609375 C 2043.941406 1273.488281 2047.53125 1277.371094 2051.421875 1281.390625 C 2079.878906 1317.398438 2106.351562 1388.019531 2128.671875 1509.460938 C 2192.859375 1454.460938 2147.789062 1281.941406 2116.359375 1211.910156 C 2247.289062 1192.851562 2348.839844 1414.820312 2417.828125 1443.871094 C 2253.898438 987.121094 2065.210938 1213.558594 2712.730469 1274.980469 C 2633.820312 1109.96875 2222.421875 1028.929688 2068.921875 1066.078125 C 2109.640625 813.761719 2192.828125 870.140625 2165.738281 758.929688 C 2103.269531 760.800781 2105.851562 715.699219 2053.699219 881.359375 C 2032.820312 947.628906 2019.011719 1004.488281 2012.089844 1073.878906 C 1774.609375 993.621094 1609.339844 914.429688 1434.96875 1113.691406 C 1588.269531 1103.359375 1640.179688 1069.679688 1773.019531 1108.511719 C 1685.691406 1128.980469 1627.429688 1131.800781 1542.640625 1157.898438 C 1447.460938 1187.199219 1291.808594 1239.761719 1196.898438 1238.828125 C 1284.679688 1353.300781 1778.101562 1228.839844 1919.03125 1235.730469 L 1919.019531 1235.730469 "/>
<path fill-rule="evenodd" fill="rgb(94.921875%, 35.693359%, 25.097656%)" fill-opacity="1" d="M 1401.21875 1507.75 C 1459.359375 1554.578125 1444.179688 1669.910156 1367.300781 1765.351562 C 1290.398438 1860.789062 1180.960938 1900.179688 1122.828125 1853.351562 C 1064.679688 1806.519531 1079.878906 1691.191406 1156.761719 1595.75 C 1233.640625 1500.308594 1343.101562 1460.921875 1401.230469 1507.75 L 1401.21875 1507.75 "/>
<path fill-rule="evenodd" fill="rgb(69.334412%, 6.272888%, 8.616638%)" fill-opacity="1" d="M 2923.589844 1502.609375 C 3083.769531 1687.480469 3180.988281 1928.210938 3180.988281 2190.539062 L 3180.96875 2190.539062 C 3180.96875 2769.71875 2707.128906 3243.582031 2127.949219 3243.582031 L 1862.601562 3243.582031 C 1471.351562 3243.582031 1128.230469 3027.328125 946.695312 2708.46875 C 1140.171875 2931.769531 1425.511719 3073.601562 1742.371094 3073.601562 L 2007.699219 3073.601562 C 2586.898438 3073.601562 3060.761719 2599.738281 3060.761719 2020.558594 L 3060.75 2020.558594 C 3060.75 1832.609375 3010.820312 1655.78125 2923.601562 1502.609375 L 2923.589844 1502.609375 "/>
</svg>
